<?xml version="1.0" encoding="UTF-8"?>
<svg version="1.1" xmlns="http://www.w3.org/2000/svg" width="48" height="48">
<path d="M0 0 C15.84 0 31.68 0 48 0 C48 15.84 48 31.68 48 48 C32.16 48 16.32 48 0 48 C0 32.16 0 16.32 0 0 Z " fill="#F2DB1D" transform="translate(0,0)"/>
<path d="M0 0 C0.66 1.32 1.32 2.64 2 4 C-1.13349732 5.04449911 -1.98968256 4.93423645 -5 4 C-5 5.32 -5 6.64 -5 8 C-4.071875 8.268125 -3.14375 8.53625 -2.1875 8.8125 C2.40883978 10.52486188 2.40883978 10.52486188 4 13 C4.64242424 18.13939394 4.64242424 18.13939394 2.7578125 20.6640625 C0.53747321 22.35152036 -0.73463981 22.4026536 -3.5 22.375 C-4.2734375 22.38273437 -5.046875 22.39046875 -5.84375 22.3984375 C-8.48245826 21.9108501 -9.39157252 21.11363867 -11 19 C-11 18.34 -11 17.68 -11 17 C-9.0625 16.4375 -9.0625 16.4375 -7 16 C-6.67 16.33 -6.34 16.66 -6 17 C-4.33382885 17.04063832 -2.66611905 17.042721 -1 17 C-1 16.34 -1 15.68 -1 15 C-2.75674121 13.6719936 -2.75674121 13.6719936 -4.9375 12.4375 C-8.94347826 10.05652174 -8.94347826 10.05652174 -10 9 C-10.45232816 3.79822616 -10.45232816 3.79822616 -8.9375 1.125 C-5.99772876 -0.58196395 -3.32129197 -0.18799766 0 0 Z " fill="#121002" transform="translate(38,19)"/>
<path d="M0 0 C1.32 0 2.64 0 4 0 C4.08710289 3.10398978 4.14042309 6.20766548 4.1875 9.3125 C4.21263672 10.19357422 4.23777344 11.07464844 4.26367188 11.98242188 C4.27817383 13.25375977 4.27817383 13.25375977 4.29296875 14.55078125 C4.31653442 15.72120972 4.31653442 15.72120972 4.34057617 16.9152832 C3.90718232 19.56815068 3.1486003 20.42148059 1 22 C-2.5 22.4375 -2.5 22.4375 -6 22 C-7.9375 20 -7.9375 20 -9 18 C-7.68 17.34 -6.36 16.68 -5 16 C-5 16.66 -5 17.32 -5 18 C-3.68 17.67 -2.36 17.34 -1 17 C-0.67 11.39 -0.34 5.78 0 0 Z " fill="#0D0C01" transform="translate(20,19)"/>
</svg>
