<?xml version="1.0" encoding="UTF-8"?>
<svg version="1.1" xmlns="http://www.w3.org/2000/svg" width="128" height="128">
<path d="M0 0 C2.18626525 -0.00436138 4.37048936 -0.04068317 6.55639648 -0.07861328 C14.04218164 -0.13914654 19.99884639 0.03263998 26.39038086 4.37060547 C30.77000745 8.86548539 32.50462954 12.82164428 32.43725586 19.04248047 C32.43048828 19.85297852 32.4237207 20.66347656 32.41674805 21.49853516 C32.40369629 22.42520996 32.40369629 22.42520996 32.39038086 23.37060547 C33.62340942 23.33132935 33.62340942 23.33132935 34.88134766 23.29125977 C38.61333024 23.18719107 42.34500746 23.12224419 46.07788086 23.05810547 C47.37145508 23.01621094 48.6650293 22.97431641 49.99780273 22.93115234 C51.2449707 22.91503906 52.49213867 22.89892578 53.77709961 22.88232422 C55.4973938 22.8430481 55.4973938 22.8430481 57.25244141 22.80297852 C61.34108199 23.54257934 62.78165696 25.22134852 65.39038086 28.37060547 C66.86736845 31.32458065 66.56362774 34.33050861 66.58325195 37.57080078 C66.59551819 38.68331963 66.59551819 38.68331963 66.60803223 39.8183136 C66.63289021 42.27844433 66.64940451 44.73851728 66.66381836 47.19873047 C66.66914204 48.03891472 66.67446571 48.87909897 66.67995071 49.74474335 C66.70668595 54.19310087 66.72605834 58.64143031 66.74047852 63.08984375 C66.75711406 67.68115344 66.80188101 72.27174361 66.85284996 76.86278152 C66.88653601 80.39559741 66.89805746 83.92824293 66.9037056 87.46120453 C66.91041595 89.15328206 66.92563255 90.84534846 66.94959641 92.53726959 C66.98127764 94.90971632 66.98128112 97.28022862 66.97387695 99.65283203 C66.99028229 100.34812515 67.00668762 101.04341827 67.02359009 101.75978088 C66.97568811 105.52150689 66.33824672 107.89029045 64.04141235 110.79046631 C60.63290847 114.10782197 58.37697537 114.49441719 53.81130981 114.51104736 C52.40238464 114.51961258 52.40238464 114.51961258 50.96499634 114.52835083 C49.93635468 114.52946869 48.90771301 114.53058655 47.84790039 114.53173828 C46.22069061 114.53918564 46.22069061 114.53918564 44.56060791 114.54678345 C40.96479666 114.56141256 37.36902951 114.568208 33.77319336 114.57373047 C31.2783915 114.57948086 28.78358966 114.58523861 26.28878784 114.59100342 C21.72410659 114.60017121 17.15943802 114.60647096 12.59474862 114.60950017 C6.54787846 114.61353527 0.50116347 114.62582168 -5.5456543 114.65185547 C-12.0330163 114.67935741 -18.52024504 114.69224635 -25.00766373 114.69417572 C-27.48202752 114.69720602 -29.95639038 114.70524716 -32.43072128 114.7183609 C-35.89008828 114.73538789 -39.34895788 114.73354919 -42.80834961 114.72705078 C-43.83294281 114.73626556 -44.85753601 114.74548035 -45.91317749 114.75497437 C-52.19237448 114.71796627 -55.75762993 114.12054748 -60.39686584 109.64730835 C-62.09675216 106.4561102 -62.03648685 103.47179488 -62.01367188 99.94335938 C-62.02053513 99.20138809 -62.02739838 98.45941681 -62.0344696 97.69496155 C-62.05275022 95.24550157 -62.0488979 92.79668145 -62.04321289 90.34716797 C-62.04777471 88.64089754 -62.05308029 86.93462895 -62.05909729 85.22836304 C-62.06803131 81.65232887 -62.06560274 78.07651797 -62.05566406 74.50048828 C-62.04418488 69.92496904 -62.06436783 65.35022276 -62.0935812 60.77480507 C-62.11195861 57.25053027 -62.11164751 53.72644007 -62.10594368 50.20212936 C-62.10579059 48.51567883 -62.11182442 46.82921569 -62.12423515 45.14281082 C-62.1391698 42.78026646 -62.12845082 40.4191416 -62.11132812 38.05664062 C-62.12099609 37.36448959 -62.13066406 36.67233856 -62.140625 35.95921326 C-62.06581555 31.01186878 -60.70188319 28.18434296 -57.60961914 24.37060547 C-54.79137722 22.96148451 -52.43710632 23.25876994 -49.28930664 23.27294922 C-48.0324707 23.27617187 -46.77563477 23.27939453 -45.48071289 23.28271484 C-44.16200195 23.29109375 -42.84329102 23.29947266 -41.48461914 23.30810547 C-40.14477703 23.31312057 -38.80493314 23.31768346 -37.46508789 23.32177734 C-34.17988708 23.33359461 -30.89477517 23.35006929 -27.60961914 23.37060547 C-27.62919678 22.77094971 -27.64877441 22.17129395 -27.66894531 21.5534668 C-27.78572711 15.44559367 -27.1549737 11.44690858 -23.60961914 6.37060547 C-16.67921277 -0.38209817 -9.12152523 -0.00203765 0 0 Z M-7.60961914 20.37060547 C-7.60961914 21.36060547 -7.60961914 22.35060547 -7.60961914 23.37060547 C-1.00961914 23.37060547 5.59038086 23.37060547 12.39038086 23.37060547 C12.39038086 22.38060547 12.39038086 21.39060547 12.39038086 20.37060547 C5.79038086 20.37060547 -0.80961914 20.37060547 -7.60961914 20.37060547 Z " fill="#ED891B" transform="translate(61.609619140625,6.62939453125)"/>
<path d="M0 0 C2.18626525 -0.00436138 4.37048936 -0.04068317 6.55639648 -0.07861328 C14.04218164 -0.13914654 19.99884639 0.03263998 26.39038086 4.37060547 C30.77000745 8.86548539 32.50462954 12.82164428 32.43725586 19.04248047 C32.43048828 19.85297852 32.4237207 20.66347656 32.41674805 21.49853516 C32.40369629 22.42520996 32.40369629 22.42520996 32.39038086 23.37060547 C33.62340942 23.33132935 33.62340942 23.33132935 34.88134766 23.29125977 C38.61333024 23.18719107 42.34500746 23.12224419 46.07788086 23.05810547 C47.37145508 23.01621094 48.6650293 22.97431641 49.99780273 22.93115234 C51.2449707 22.91503906 52.49213867 22.89892578 53.77709961 22.88232422 C55.4973938 22.8430481 55.4973938 22.8430481 57.25244141 22.80297852 C61.34108199 23.54257934 62.78165696 25.22134852 65.39038086 28.37060547 C66.86736845 31.32458065 66.56362774 34.33050861 66.58325195 37.57080078 C66.59551819 38.68331963 66.59551819 38.68331963 66.60803223 39.8183136 C66.63289021 42.27844433 66.64940451 44.73851728 66.66381836 47.19873047 C66.66914204 48.03891472 66.67446571 48.87909897 66.67995071 49.74474335 C66.70668595 54.19310087 66.72605834 58.64143031 66.74047852 63.08984375 C66.75711406 67.68115344 66.80188101 72.27174361 66.85284996 76.86278152 C66.88653601 80.39559741 66.89805746 83.92824293 66.9037056 87.46120453 C66.91041595 89.15328206 66.92563255 90.84534846 66.94959641 92.53726959 C66.98127764 94.90971632 66.98128112 97.28022862 66.97387695 99.65283203 C66.99028229 100.34812515 67.00668762 101.04341827 67.02359009 101.75978088 C66.97568811 105.52150689 66.33824672 107.89029045 64.04141235 110.79046631 C60.63290847 114.10782197 58.37697537 114.49441719 53.81130981 114.51104736 C52.40238464 114.51961258 52.40238464 114.51961258 50.96499634 114.52835083 C49.93635468 114.52946869 48.90771301 114.53058655 47.84790039 114.53173828 C46.22069061 114.53918564 46.22069061 114.53918564 44.56060791 114.54678345 C40.96479666 114.56141256 37.36902951 114.568208 33.77319336 114.57373047 C31.2783915 114.57948086 28.78358966 114.58523861 26.28878784 114.59100342 C21.72410659 114.60017121 17.15943802 114.60647096 12.59474862 114.60950017 C6.54787846 114.61353527 0.50116347 114.62582168 -5.5456543 114.65185547 C-12.0330163 114.67935741 -18.52024504 114.69224635 -25.00766373 114.69417572 C-27.48202752 114.69720602 -29.95639038 114.70524716 -32.43072128 114.7183609 C-35.89008828 114.73538789 -39.34895788 114.73354919 -42.80834961 114.72705078 C-43.83294281 114.73626556 -44.85753601 114.74548035 -45.91317749 114.75497437 C-52.19237448 114.71796627 -55.75762993 114.12054748 -60.39686584 109.64730835 C-62.09675216 106.4561102 -62.03648685 103.47179488 -62.01367188 99.94335938 C-62.02053513 99.20138809 -62.02739838 98.45941681 -62.0344696 97.69496155 C-62.05275022 95.24550157 -62.0488979 92.79668145 -62.04321289 90.34716797 C-62.04777471 88.64089754 -62.05308029 86.93462895 -62.05909729 85.22836304 C-62.06803131 81.65232887 -62.06560274 78.07651797 -62.05566406 74.50048828 C-62.04418488 69.92496904 -62.06436783 65.35022276 -62.0935812 60.77480507 C-62.11195861 57.25053027 -62.11164751 53.72644007 -62.10594368 50.20212936 C-62.10579059 48.51567883 -62.11182442 46.82921569 -62.12423515 45.14281082 C-62.1391698 42.78026646 -62.12845082 40.4191416 -62.11132812 38.05664062 C-62.12099609 37.36448959 -62.13066406 36.67233856 -62.140625 35.95921326 C-62.06581555 31.01186878 -60.70188319 28.18434296 -57.60961914 24.37060547 C-54.79137722 22.96148451 -52.43710632 23.25876994 -49.28930664 23.27294922 C-48.0324707 23.27617187 -46.77563477 23.27939453 -45.48071289 23.28271484 C-44.16200195 23.29109375 -42.84329102 23.29947266 -41.48461914 23.30810547 C-40.14477703 23.31312057 -38.80493314 23.31768346 -37.46508789 23.32177734 C-34.17988708 23.33359461 -30.89477517 23.35006929 -27.60961914 23.37060547 C-27.62919678 22.77094971 -27.64877441 22.17129395 -27.66894531 21.5534668 C-27.78572711 15.44559367 -27.1549737 11.44690858 -23.60961914 6.37060547 C-16.67921277 -0.38209817 -9.12152523 -0.00203765 0 0 Z M-7.60961914 20.37060547 C-7.60961914 21.36060547 -7.60961914 22.35060547 -7.60961914 23.37060547 C-1.00961914 23.37060547 5.59038086 23.37060547 12.39038086 23.37060547 C12.39038086 22.38060547 12.39038086 21.39060547 12.39038086 20.37060547 C5.79038086 20.37060547 -0.80961914 20.37060547 -7.60961914 20.37060547 Z M-55.60961914 33.37060547 C-55.60961914 56.47060547 -55.60961914 79.57060547 -55.60961914 103.37060547 C-17.32961914 103.37060547 20.95038086 103.37060547 60.39038086 103.37060547 C60.39038086 80.27060547 60.39038086 57.17060547 60.39038086 33.37060547 C22.11038086 33.37060547 -16.16961914 33.37060547 -55.60961914 33.37060547 Z " fill="#020100" transform="translate(61.609619140625,6.62939453125)"/>
<path d="M0 0 C1.26199219 -0.00064453 2.52398437 -0.00128906 3.82421875 -0.00195312 C5.13003906 0.01802734 6.43585937 0.03800781 7.78125 0.05859375 C9.08707031 0.05150391 10.39289063 0.04441406 11.73828125 0.03710938 C18.13731798 0.07959532 22.67432851 0.13545774 28.28125 3.49609375 C32.5853765 8.26553122 33.40621235 10.74993388 33.34375 17.12109375 C33.33472656 18.30960938 33.32570313 19.498125 33.31640625 20.72265625 C33.30480469 21.63789062 33.29320313 22.553125 33.28125 23.49609375 C34.20462158 23.47514648 35.12799316 23.45419922 36.0793457 23.43261719 C39.50669323 23.36442844 42.9333198 23.31428913 46.36108398 23.27636719 C47.84427261 23.25625616 49.32738199 23.22896301 50.81030273 23.19433594 C52.94274435 23.14579023 55.07413777 23.1231218 57.20703125 23.10546875 C58.49005127 23.08452148 59.77307129 23.06357422 61.0949707 23.04199219 C64.28125 23.49609375 64.28125 23.49609375 65.95613098 25.08024597 C67.7601396 28.3691658 67.66244397 30.85851378 67.66943359 34.60375977 C67.67469055 35.31153564 67.67994751 36.01931152 67.68536377 36.74853516 C67.69854271 39.08258278 67.68983457 41.41594573 67.6796875 43.75 C67.68170863 45.37377554 67.68462039 46.9975502 67.68838501 48.62132263 C67.6928053 52.02164364 67.6863861 55.42172801 67.67236328 58.82202148 C67.65525776 63.18250354 67.66512281 67.54243219 67.68308067 71.90289402 C67.69391496 75.25461507 67.69047408 78.60620463 67.6826973 81.95792961 C67.680695 83.56590783 67.6831556 85.17389795 67.69013596 86.78186226 C67.69774632 89.02750467 67.68615385 91.27224699 67.66943359 93.51782227 C67.66704681 94.79593277 67.66466003 96.07404327 67.66220093 97.3908844 C67.28125 100.49609375 67.28125 100.49609375 66.04447365 102.1663599 C63.78281615 103.87198728 62.50570964 103.87315554 59.6887207 103.87704468 C58.74654694 103.88550415 57.80437317 103.89396362 56.83364868 103.90267944 C55.80186493 103.89660675 54.77008118 103.89053406 53.70703125 103.88427734 C52.07500259 103.89216278 52.07500259 103.89216278 50.41000366 103.90020752 C46.80444083 103.91343865 43.19931752 103.90465813 39.59375 103.89453125 C37.09415604 103.89655108 34.59456264 103.89946176 32.0949707 103.90322876 C26.85265598 103.90765634 21.61045613 103.90149203 16.36816406 103.88720703 C10.30653251 103.87088016 4.24520366 103.87616861 -1.81642056 103.89268625 C-7.64649864 103.90793734 -13.47646161 103.90632726 -19.30654907 103.89754105 C-21.78813723 103.89553576 -24.26973308 103.89800975 -26.75131226 103.90497971 C-30.2159286 103.91257448 -33.67995872 103.90101704 -37.14453125 103.88427734 C-38.176315 103.89035004 -39.20809875 103.89642273 -40.27114868 103.90267944 C-41.68440933 103.88999023 -41.68440933 103.88999023 -43.1262207 103.87704468 C-44.35511772 103.87534806 -44.35511772 103.87534806 -45.60884094 103.87361717 C-48.24983475 103.40106741 -49.13527578 102.63457528 -50.71875 100.49609375 C-51.09970093 97.3908844 -51.09970093 97.3908844 -51.10693359 93.51782227 C-51.11219055 92.81179871 -51.11744751 92.10577515 -51.12286377 91.37835693 C-51.13607112 89.04367977 -51.12732262 86.70968415 -51.1171875 84.375 C-51.11920826 82.75219085 -51.12211972 81.12938258 -51.12588501 79.50657654 C-51.13030953 76.1044755 -51.12387418 72.7026107 -51.10986328 69.30053711 C-51.09278476 64.9412454 -51.10260303 60.58250832 -51.12058067 56.22323704 C-51.13142678 52.87147349 -51.12796817 49.51984118 -51.1201973 46.16807365 C-51.11819686 44.56092195 -51.12064908 42.95375832 -51.12763596 41.34662056 C-51.13526272 39.09867989 -51.12362953 36.85163388 -51.10693359 34.60375977 C-51.10454681 33.32485367 -51.10216003 32.04594757 -51.09970093 30.72828674 C-50.69502454 27.29479417 -50.21363532 25.85583045 -47.71875 23.49609375 C-44.5324707 23.04199219 -44.5324707 23.04199219 -40.64453125 23.10546875 C-39.61878242 23.11395844 -39.61878242 23.11395844 -38.5723114 23.12261963 C-36.39124101 23.14498559 -34.21182247 23.1951761 -32.03125 23.24609375 C-30.55145605 23.26615875 -29.0716363 23.28440953 -27.59179688 23.30078125 C-23.9669124 23.34484901 -20.34299244 23.41387553 -16.71875 23.49609375 C-16.73760254 22.59898682 -16.75645508 21.70187988 -16.77587891 20.77758789 C-16.79787354 19.01596313 -16.79787354 19.01596313 -16.8203125 17.21875 C-16.83916504 16.05351807 -16.85801758 14.88828613 -16.87744141 13.68774414 C-16.66923465 9.50022572 -15.63536157 7.48945826 -12.71875 4.49609375 C-8.34363138 1.09457212 -5.53081529 -0.00894828 0 0 Z M-1.71875 15.49609375 C-1.71875 16.48609375 -1.71875 17.47609375 -1.71875 18.49609375 C4.88125 18.49609375 11.48125 18.49609375 18.28125 18.49609375 C18.28125 17.50609375 18.28125 16.51609375 18.28125 15.49609375 C11.68125 15.49609375 5.08125 15.49609375 -1.71875 15.49609375 Z M-49.71875 28.49609375 C-49.71875 51.59609375 -49.71875 74.69609375 -49.71875 98.49609375 C-11.43875 98.49609375 26.84125 98.49609375 66.28125 98.49609375 C66.28125 75.39609375 66.28125 52.29609375 66.28125 28.49609375 C28.00125 28.49609375 -10.27875 28.49609375 -49.71875 28.49609375 Z " fill="#67320B" transform="translate(55.71875,11.50390625)"/>
<path d="M0 0 C38.28 0 76.56 0 116 0 C116 1.98 116 3.96 116 6 C113.01362909 7.71405419 110.87763639 8.24961205 107.44580078 8.24723816 C106.0831308 8.25352989 106.0831308 8.25352989 104.69293213 8.25994873 C103.20911041 8.25151947 103.20911041 8.25151947 101.6953125 8.24291992 C100.64776794 8.24481827 99.60022339 8.24671661 98.52093506 8.24867249 C95.05554743 8.25237949 91.59036903 8.24167668 88.125 8.23046875 C85.71891301 8.22927676 83.31282555 8.22882383 80.90673828 8.2290802 C75.86292612 8.22751544 70.81918493 8.21922641 65.77539062 8.20581055 C59.30545134 8.1888208 52.83559009 8.18499624 46.3656311 8.18575573 C41.39688368 8.18548398 36.42815336 8.18000195 31.45941162 8.17275429 C29.07354868 8.16956893 26.6876838 8.16760052 24.30181885 8.16686058 C20.96940805 8.16469564 17.63708046 8.15594791 14.3046875 8.14526367 C13.31547302 8.14571686 12.32625854 8.14617004 11.30706787 8.14663696 C10.39862122 8.14237198 9.49017456 8.13810699 8.55419922 8.13371277 C7.76665253 8.13203692 6.97910583 8.13036108 6.16769409 8.12863445 C3.99556825 7.99973701 2.08753114 7.59831082 0 7 C0 4.69 0 2.38 0 0 Z " fill="#A35711" transform="translate(6,40)"/>
<path d="M0 0 C1.46395706 -0.00422974 1.46395706 -0.00422974 2.95748901 -0.00854492 C4.03700836 -0.00652069 5.11652771 -0.00449646 6.22875977 -0.00241089 C7.35871368 -0.00416321 8.4886676 -0.00591553 9.65286255 -0.00772095 C13.40864574 -0.01214217 17.1643823 -0.00920052 20.92016602 -0.00582886 C23.51708994 -0.00650182 26.1140138 -0.00747178 28.7109375 -0.00872803 C34.1618719 -0.01020537 39.61278859 -0.00814387 45.0637207 -0.00338745 C51.37405831 0.00205514 57.68436361 0.00029247 63.99470043 -0.00521386 C70.05434302 -0.01029067 76.11396974 -0.00976345 82.1736145 -0.00683212 C84.75733444 -0.00616258 87.34105519 -0.00699221 89.92477417 -0.00931168 C93.52872944 -0.0118366 97.13262171 -0.00799985 100.73657227 -0.00241089 C101.81609161 -0.00443512 102.89561096 -0.00645935 104.00784302 -0.00854492 C104.98381439 -0.0057251 105.95978577 -0.00290527 106.96533203 0 C107.81853531 0.00037703 108.67173859 0.00075405 109.55079651 0.0011425 C111.48266602 0.12698364 111.48266602 0.12698364 112.48266602 1.12698364 C112.59289187 3.38062566 112.63181498 5.63776932 112.64379883 7.89407349 C112.65124619 8.95508018 112.65124619 8.95508018 112.65884399 10.03752136 C112.67350089 12.38766436 112.68027361 14.73773986 112.68579102 17.08792114 C112.69153981 18.7159831 112.69729757 20.34404503 112.70306396 21.97210693 C112.71358416 25.39027218 112.71942007 28.80841384 112.72290039 32.22659302 C112.72838566 36.61064712 112.7524099 40.99439071 112.78087234 45.3783474 C112.79947964 48.74290889 112.80470331 52.10739533 112.80623627 55.47200394 C112.80926793 57.08837201 112.81731372 58.7047386 112.83042145 60.32105637 C112.84744181 62.58131382 112.8456119 64.84080953 112.83911133 67.10110474 C112.84457977 69.03184341 112.84457977 69.03184341 112.85015869 71.00158691 C112.48266602 74.12698364 112.48266602 74.12698364 111.2467308 75.79851151 C108.98445872 77.50217083 107.70652439 77.50404627 104.89013672 77.50793457 C103.94796295 77.51639404 103.00578918 77.52485352 102.0350647 77.53356934 C101.00328094 77.52749664 99.97149719 77.52142395 98.90844727 77.51516724 C97.27641861 77.52305267 97.27641861 77.52305267 95.61141968 77.53109741 C92.00585684 77.54432854 88.40073354 77.53554802 84.79516602 77.52542114 C82.29557205 77.52744097 79.79597866 77.53035165 77.29638672 77.53411865 C72.054072 77.53854623 66.81187214 77.53238192 61.56958008 77.51809692 C55.50794852 77.50177006 49.44661968 77.5070585 43.38499546 77.52357614 C37.55491738 77.53882723 31.72495441 77.53721715 25.89486694 77.52843094 C23.41327879 77.52642566 20.93168294 77.52889964 18.45010376 77.5358696 C14.98548742 77.54346437 11.5214573 77.53190694 8.05688477 77.51516724 C7.02510101 77.52123993 5.99331726 77.52731262 4.93026733 77.53356934 C3.51700668 77.52088013 3.51700668 77.52088013 2.07519531 77.50793457 C0.84629829 77.50623796 0.84629829 77.50623796 -0.40742493 77.50450706 C-3.04883862 77.03188217 -3.93493387 76.2670844 -5.51733398 74.12698364 C-5.88482666 71.00158691 -5.88482666 71.00158691 -5.8737793 67.10110474 C-5.87582367 66.3902623 -5.87786804 65.67941986 -5.87997437 64.94703674 C-5.88298216 62.59790307 -5.86450889 60.24947134 -5.84545898 57.90042114 C-5.84240176 56.2704282 -5.84052536 54.64043265 -5.83978271 53.01043701 C-5.83517998 49.59573357 -5.82075319 46.181266 -5.79858398 42.76663208 C-5.77025679 38.38029807 -5.75936805 33.99414957 -5.75490189 29.60773277 C-5.75075441 26.24324676 -5.74094332 22.87879858 -5.72902679 19.51433182 C-5.72331353 17.89633107 -5.71855834 16.27832666 -5.71475983 14.66032028 C-5.70791877 12.4048389 -5.69429801 10.14950739 -5.6784668 7.89407349 C-5.67163879 6.60850555 -5.66481079 5.32293762 -5.65777588 3.99841309 C-5.43506843 -0.55499131 -4.13141502 0.00182565 0 0 Z M-4.51733398 2.12698364 C-4.51733398 25.22698364 -4.51733398 48.32698364 -4.51733398 72.12698364 C33.76266602 72.12698364 72.04266602 72.12698364 111.48266602 72.12698364 C111.48266602 49.02698364 111.48266602 25.92698364 111.48266602 2.12698364 C73.20266602 2.12698364 34.92266602 2.12698364 -4.51733398 2.12698364 Z " fill="#7C450F" transform="translate(10.517333984375,37.873016357421875)"/>
<path d="M0 0 C1.99907888 0.00315236 3.99813905 -0.02115759 5.99707031 -0.0456543 C7.90359375 -0.04662109 7.90359375 -0.04662109 9.84863281 -0.04760742 C11.00669434 -0.05058838 12.16475586 -0.05356934 13.35791016 -0.05664062 C18.13219488 0.48532634 21.41323266 2.25232468 25.01269531 5.37817383 C27.37106856 9.641387 26.97103278 13.5470961 26.63769531 18.31567383 C22.67769531 18.81067383 22.67769531 18.81067383 18.63769531 19.31567383 C18.51394531 18.20192383 18.39019531 17.08817383 18.26269531 15.94067383 C17.99111401 12.28463706 17.99111401 12.28463706 15.63769531 10.31567383 C12.95242913 10.00410553 12.95242913 10.00410553 9.82519531 10.05004883 C8.08882812 10.04618164 8.08882812 10.04618164 6.31738281 10.04223633 C5.10308594 10.0499707 3.88878906 10.05770508 2.63769531 10.06567383 C1.42339844 10.05793945 0.20910156 10.05020508 -1.04199219 10.04223633 C-2.19957031 10.04481445 -3.35714844 10.04739258 -4.54980469 10.05004883 C-6.14888672 10.05343262 -6.14888672 10.05343262 -7.78027344 10.05688477 C-10.5255393 10.05686585 -10.5255393 10.05686585 -12.36230469 12.31567383 C-12.75994731 14.30388696 -13.10005817 16.30511722 -13.36230469 18.31567383 C-16.00230469 18.31567383 -18.64230469 18.31567383 -21.36230469 18.31567383 C-22.22282378 8.63961473 -22.22282378 8.63961473 -19.11230469 4.81567383 C-13.1519013 -0.6028747 -7.81302141 -0.02581395 0 0 Z " fill="#E1821A" transform="translate(61.3623046875,11.684326171875)"/>
<path d="M0 0 C4.54163833 0.46887646 9.04565063 0.97784398 13.54760742 1.74072266 C26.70465365 3.93490454 39.58397893 4.46583277 52.90991211 4.39111328 C56.2990777 4.37506356 59.68704255 4.391046 63.07617188 4.41015625 C77.05575161 4.42255858 90.60764259 3.37320398 104.43734741 1.35772705 C108.28341466 0.82084495 112.13834237 0.40830926 116 0 C116 1.32 116 2.64 116 4 C115.01 4 114.02 4 113 4 C113 5.65 113 7.3 113 9 C76.7 8.67 40.4 8.34 3 8 C3 6.35 3 4.7 3 3 C2.01 3 1.02 3 0 3 C0 2.01 0 1.02 0 0 Z " fill="#D66B12" transform="translate(6,71)"/>
<path d="M0 0 C38.28 0 76.56 0 116 0 C116 1.32 116 2.64 116 4 C77.72 4 39.44 4 0 4 C0 2.68 0 1.36 0 0 Z " fill="#B26716" transform="translate(6,106)"/>
<path d="M0 0 C38.28 0 76.56 0 116 0 C116 1.32 116 2.64 116 4 C77.72 4 39.44 4 0 4 C0 2.68 0 1.36 0 0 Z " fill="#D47D1A" transform="translate(6,102)"/>
<path d="M0 0 C38.28 0 76.56 0 116 0 C116 0.66 116 1.32 116 2 C113.01362909 3.71405419 110.87763639 4.24961205 107.44580078 4.24723816 C106.0831308 4.25352989 106.0831308 4.25352989 104.69293213 4.25994873 C103.20911041 4.25151947 103.20911041 4.25151947 101.6953125 4.24291992 C100.64776794 4.24481827 99.60022339 4.24671661 98.52093506 4.24867249 C95.05554743 4.25237949 91.59036903 4.24167668 88.125 4.23046875 C85.71891301 4.22927676 83.31282555 4.22882383 80.90673828 4.2290802 C75.86292612 4.22751544 70.81918493 4.21922641 65.77539062 4.20581055 C59.30545134 4.1888208 52.83559009 4.18499624 46.3656311 4.18575573 C41.39688368 4.18548398 36.42815336 4.18000195 31.45941162 4.17275429 C29.07354868 4.16956893 26.6876838 4.16760052 24.30181885 4.16686058 C20.96940805 4.16469564 17.63708046 4.15594791 14.3046875 4.14526367 C13.31547302 4.14571686 12.32625854 4.14617004 11.30706787 4.14663696 C10.39862122 4.14237198 9.49017456 4.13810699 8.55419922 4.13371277 C7.76665253 4.13203692 6.97910583 4.13036108 6.16769409 4.12863445 C3.99556825 3.99973701 2.08753114 3.59831082 0 3 C0 2.01 0 1.02 0 0 Z " fill="#C56D15" transform="translate(6,44)"/>
<path d="M0 0 C1.15757813 -0.00257812 2.31515625 -0.00515625 3.5078125 -0.0078125 C4.72210938 -0.00007813 5.93640625 0.00765625 7.1875 0.015625 C8.40179688 0.00789063 9.61609375 0.00015625 10.8671875 -0.0078125 C12.60355469 -0.00394531 12.60355469 -0.00394531 14.375 0 C15.44105469 0.00225586 16.50710937 0.00451172 17.60546875 0.00683594 C20.1875 0.265625 20.1875 0.265625 22.1875 2.265625 C22.1875 6.225625 22.1875 10.185625 22.1875 14.265625 C12.2875 14.265625 2.3875 14.265625 -7.8125 14.265625 C-7.8125 0.01653189 -7.8125 0.01653189 0 0 Z M-2.8125 6.265625 C-2.8125 7.255625 -2.8125 8.245625 -2.8125 9.265625 C3.7875 9.265625 10.3875 9.265625 17.1875 9.265625 C17.1875 8.275625 17.1875 7.285625 17.1875 6.265625 C10.5875 6.265625 3.9875 6.265625 -2.8125 6.265625 Z " fill="#030100" transform="translate(56.8125,20.734375)"/>
<path d="M0 0 C0.93457031 0.12117188 1.86914062 0.24234375 2.83203125 0.3671875 C6.40536455 0.82609215 9.9808463 1.26590558 13.55711365 1.70129395 C15.09452329 1.88928205 16.63164947 2.07961793 18.16835022 2.27331543 C31.15472977 3.89277324 43.98262322 4.35811796 57.0625 4.3125 C58.53162338 4.3117598 58.53162338 4.3117598 60.03042603 4.31100464 C74.67998157 4.28847352 88.96122095 3.58722836 103.46240234 1.36376953 C107.62691826 0.76677812 111.81086699 0.37969853 116 0 C116 0.66 116 1.32 116 2 C112.5640523 2.65427137 109.12600185 3.29679914 105.6875 3.9375 C104.73037109 4.11990234 103.77324219 4.30230469 102.78710938 4.49023438 C101.82998047 4.66748047 100.87285156 4.84472656 99.88671875 5.02734375 C99.02264404 5.18968506 98.15856934 5.35202637 97.26831055 5.51928711 C88.60168431 6.79400042 79.96159848 7.17516249 71.2109375 7.23828125 C70.10940338 7.246353 69.00786926 7.25442474 67.87295532 7.26274109 C65.54845712 7.2764923 63.22393948 7.28725397 60.89941406 7.29516602 C58.57480745 7.30659904 56.25022523 7.32690998 53.92578125 7.35668945 C35.45825084 7.59227155 18.08477355 5.63620215 0 2 C0 1.34 0 0.68 0 0 Z " fill="#FA9C2E" transform="translate(6,69)"/>
<path d="M0 0 C0.33 0 0.66 0 1 0 C1 2.64 1 5.28 1 8 C3.64 8 6.28 8 9 8 C9 6.02 9 4.04 9 2 C9.33 2 9.66 2 10 2 C10 5.63 10 9.26 10 13 C19.9 13 29.8 13 40 13 C40 9.37 40 5.74 40 2 C40.33 2 40.66 2 41 2 C41 4.31 41 6.62 41 9 C43.64 8.67 46.28 8.34 49 8 C49 5.36 49 2.72 49 0 C49.33 0 49.66 0 50 0 C50 4.29 50 8.58 50 13 C60.23 13 70.46 13 81 13 C81 13.33 81 13.66 81 14 C44.04 14 7.08 14 -31 14 C-31 13.67 -31 13.34 -31 13 C-20.77 13 -10.54 13 0 13 C0 8.71 0 4.42 0 0 Z " fill="#441F08" transform="translate(39,22)"/>
<path d="M0 0 C4.02009457 -0.07455949 8.03991733 -0.12879358 12.06054688 -0.16479492 C13.42617816 -0.17981428 14.79176176 -0.20023608 16.15722656 -0.22631836 C18.12803905 -0.26300137 20.09921408 -0.27818551 22.0703125 -0.29296875 C23.25383301 -0.3086792 24.43735352 -0.32438965 25.65673828 -0.34057617 C30.4834238 0.15111554 33.74276109 1.90818726 37.375 5.0625 C39.73337325 9.32571318 39.33333747 13.23142227 39 18 C35.04 18.495 35.04 18.495 31 19 C30.87625 17.88625 30.7525 16.7725 30.625 15.625 C30.3534187 11.96896323 30.3534187 11.96896323 28 10 C25.31473382 9.6884317 25.31473382 9.6884317 22.1875 9.734375 C20.45113281 9.73050781 20.45113281 9.73050781 18.6796875 9.7265625 C17.46539062 9.73429687 16.25109375 9.74203125 15 9.75 C13.78570312 9.74226563 12.57140625 9.73453125 11.3203125 9.7265625 C10.16273437 9.72914062 9.00515625 9.73171875 7.8125 9.734375 C6.21341797 9.73775879 6.21341797 9.73775879 4.58203125 9.74121094 C1.83676539 9.74119202 1.83676539 9.74119202 0 12 C-0.39764263 13.98821313 -0.73775349 15.98944339 -1 18 C-3.64 18 -6.28 18 -9 18 C-9.08121924 16.39667209 -9.13929134 14.79215974 -9.1875 13.1875 C-9.22230469 12.29417969 -9.25710937 11.40085937 -9.29296875 10.48046875 C-8.95081002 7.58352485 -8.24606427 6.77444972 -6 5 C-6 6.98 -6 8.96 -6 11 C-4.35 11 -2.7 11 -1 11 C-0.67 10.01 -0.34 9.02 0 8 C4.2358357 7.97530679 8.47163342 7.95714329 12.70751953 7.94506836 C14.1489332 7.94003526 15.59034176 7.93320827 17.03173828 7.92456055 C19.10190085 7.91245017 21.17199601 7.90676153 23.2421875 7.90234375 C24.4885498 7.89710693 25.73491211 7.89187012 27.01904297 7.88647461 C30 8 30 8 32 9 C32 9.66 32 10.32 32 11 C33.32 11 34.64 11 36 11 C35.505 10.1028125 35.505 10.1028125 35 9.1875 C34 7 34 7 34 4 C33.401875 3.855625 32.80375 3.71125 32.1875 3.5625 C30.43849596 3.1127561 28.71322977 2.57107659 27 2 C24.93637009 1.84970012 22.86876085 1.75155552 20.80078125 1.68359375 C19.59228516 1.64169922 18.38378906 1.59980469 17.13867188 1.55664062 C15.87603516 1.51732422 14.61339844 1.47800781 13.3125 1.4375 C12.03826172 1.39431641 10.76402344 1.35113281 9.45117188 1.30664062 C6.30089148 1.2004514 3.15053161 1.09840467 0 1 C0 0.67 0 0.34 0 0 Z " fill="#974C0D" transform="translate(49,12)"/>
<path d="M0 0 C8.04644231 0.83909113 16.05071296 1.94487288 24.0625 3.0625 C25.41860436 3.25076225 26.77472404 3.43891412 28.13085938 3.62695312 C31.42072481 4.08355367 34.71043166 4.54126477 38 5 C38 5.33 38 5.66 38 6 C26.45 6 14.9 6 3 6 C3 5.01 3 4.02 3 3 C2.01 3 1.02 3 0 3 C0 2.01 0 1.02 0 0 Z " fill="#C85D0D" transform="translate(6,71)"/>
<path d="M0 0 C0 1.32 0 2.64 0 4 C-0.99 4 -1.98 4 -3 4 C-3 4.66 -3 5.32 -3 6 C-11.91 6 -20.82 6 -30 6 C-29.67 5.34 -29.34 4.68 -29 4 C-26.76269531 3.40576172 -26.76269531 3.40576172 -23.828125 2.9296875 C-22.24257812 2.66865234 -22.24257812 2.66865234 -20.625 2.40234375 C-19.51125 2.22832031 -18.3975 2.05429688 -17.25 1.875 C-16.15171875 1.69324219 -15.0534375 1.51148437 -13.921875 1.32421875 C-9.22943645 0.56682272 -4.76362953 -0.11176625 0 0 Z " fill="#C05B0E" transform="translate(122,71)"/>
<path d="M0 0 C0 2 0 2 -2.5 4.625 C-3.325 5.40875 -4.15 6.1925 -5 7 C-4.34 6.67 -3.68 6.34 -3 6 C-0.54203814 5.94975396 1.88757936 5.95706024 4.34375 6.0078125 C5.83202447 6.02532526 7.32030616 6.04223388 8.80859375 6.05859375 C11.15921803 6.08960722 13.5094856 6.12518645 15.85986328 6.17138672 C18.12537166 6.21361295 20.39045657 6.23713139 22.65625 6.2578125 C23.71410706 6.28574387 23.71410706 6.28574387 24.79333496 6.3142395 C26.98685083 6.36065706 26.98685083 6.36065706 30 6 C30.66 5.01 31.32 4.02 32 3 C33.4606285 5.64738916 34 6.89448334 34 10 C32.68 10 31.36 10 30 10 C30 9.34 30 8.68 30 8 C25.49767666 7.92582977 20.99570909 7.8713895 16.49291992 7.83520508 C14.96128139 7.82012064 13.42968602 7.79965022 11.89819336 7.77368164 C9.69634346 7.73728153 7.49506467 7.72027087 5.29296875 7.70703125 C4.26625313 7.68380547 4.26625313 7.68380547 3.21879578 7.66011047 C-0.62206173 7.62180283 -0.62206173 7.62180283 -3.8190918 9.5378418 C-4.2087915 10.020354 -4.59849121 10.50286621 -5 11 C-7.1875 10.6875 -7.1875 10.6875 -9 10 C-8.51309271 3.54847841 -8.51309271 3.54847841 -6.1875 1.0625 C-4 0 -4 0 0 0 Z " fill="#C16B15" transform="translate(51,13)"/>
<path d="M0 0 C3 0.25 3 0.25 5 2.25 C5.3633156 5.08386167 5.3568671 6.65522151 3.875 9.125 C2 10.25 2 10.25 -1.125 10 C-4 9.25 -4 9.25 -5 8.25 C-5.1875 5.3125 -5.1875 5.3125 -5 2.25 C-3 0.25 -3 0.25 0 0 Z " fill="#9EACB5" transform="translate(64,59.75)"/>
<path d="M0 0 C4.10410755 -0.05796132 8.20811016 -0.09358313 12.3125 -0.125 C13.47974609 -0.14175781 14.64699219 -0.15851562 15.84960938 -0.17578125 C16.96787109 -0.18222656 18.08613281 -0.18867188 19.23828125 -0.1953125 C20.26993408 -0.20578613 21.30158691 -0.21625977 22.36450195 -0.22705078 C25 0 25 0 28 2 C26.87972412 1.97643433 26.87972412 1.97643433 25.73681641 1.95239258 C22.36628739 1.89018923 18.99587888 1.8510558 15.625 1.8125 C14.449375 1.78736328 13.27375 1.76222656 12.0625 1.73632812 C10.94101562 1.72666016 9.81953125 1.71699219 8.6640625 1.70703125 C7.62717285 1.6913208 6.5902832 1.67561035 5.52197266 1.65942383 C4.27359619 1.82800903 4.27359619 1.82800903 3 2 C2.01 3.485 2.01 3.485 1 5 C9.58 5 18.16 5 27 5 C27 5.33 27 5.66 27 6 C11.16 6.495 11.16 6.495 -5 7 C-3 3 -3 3 0 2 C0 1.34 0 0.68 0 0 Z " fill="#D47516" transform="translate(51,13)"/>
<path d="M0 0 C0.33 0 0.66 0 1 0 C1 2.64 1 5.28 1 8 C3.64 8 6.28 8 9 8 C9 6.02 9 4.04 9 2 C9.33 2 9.66 2 10 2 C10 5.63 10 9.26 10 13 C6.7 13 3.4 13 0 13 C0 8.71 0 4.42 0 0 Z " fill="#321302" transform="translate(39,22)"/>
<path d="M0 0 C0.33 0 0.66 0 1 0 C1 4.29 1 8.58 1 13 C-2.3 13 -5.6 13 -9 13 C-9 9.37 -9 5.74 -9 2 C-8.67 2 -8.34 2 -8 2 C-8 4.31 -8 6.62 -8 9 C-5.36 8.67 -2.72 8.34 0 8 C0 5.36 0 2.72 0 0 Z " fill="#240D01" transform="translate(88,22)"/>
<path d="M0 0 C2 2 2 2 2.1953125 4.3828125 C2.17210938 5.28773437 2.14890625 6.19265625 2.125 7.125 C2.10695313 8.03507812 2.08890625 8.94515625 2.0703125 9.8828125 C2.04710938 10.58148438 2.02390625 11.28015625 2 12 C-0.64 12.33 -3.28 12.66 -6 13 C-6.33 10.36 -6.66 7.72 -7 5 C-6.34 5 -5.68 5 -5 5 C-4.67 5.66 -4.34 6.32 -4 7 C-3.01 7.33 -2.02 7.66 -1 8 C-0.67 5.36 -0.34 2.72 0 0 Z " fill="#8C470D" transform="translate(86,18)"/>
<path d="M0 0 C6.43974581 0.62320121 12.67572401 1.64008262 19 3 C19 3.33 19 3.66 19 4 C16.39576408 4.02697137 13.79180756 4.04682489 11.1875 4.0625 C10.44951172 4.07087891 9.71152344 4.07925781 8.95117188 4.08789062 C5.70077932 4.10259828 3.10595105 4.03531702 0 3 C0 2.01 0 1.02 0 0 Z " fill="#B7580F" transform="translate(6,71)"/>
<path d="M0 0 C0.33 0 0.66 0 1 0 C1.33 2.31 1.66 4.62 2 7 C3.98 6.01 5.96 5.02 8 4 C8 5.98 8 7.96 8 10 C5.36 10 2.72 10 0 10 C0 6.7 0 3.4 0 0 Z " fill="#7D3D0B" transform="translate(40,20)"/>
<path d="M0 0 C0 0.66 0 1.32 0 2 C-2.31 2.66 -4.62 3.32 -7 4 C-7 5.65 -7 7.3 -7 9 C-5.68 9.33 -4.36 9.66 -3 10 C-4.65 10.33 -6.3 10.66 -8 11 C-9.03321725 7.71249056 -9.20141923 6.42202124 -7.6875 3.25 C-5.12827216 -0.16230379 -4.40659245 0 0 0 Z " fill="#B45E11" transform="translate(51,13)"/>
<path d="M0 0 C2.97 0.495 2.97 0.495 6 1 C6.125 3.375 6.125 3.375 6 6 C5.34 6.66 4.68 7.32 4 8 C0.875 7.625 0.875 7.625 -2 7 C-2.33 5.68 -2.66 4.36 -3 3 C-1.515 3.99 -1.515 3.99 0 5 C1.32 5 2.64 5 4 5 C4.33 4.01 4.66 3.02 5 2 C3.35 2 1.7 2 0 2 C0 1.34 0 0.68 0 0 Z " fill="#D6D8D7" transform="translate(62,62)"/>
<path d="M0 0 C0 1.32 0 2.64 0 4 C-2.64 4 -5.28 4 -8 4 C-8 3.01 -8 2.02 -8 1 C-5.10765685 0.17361624 -3.11257569 0 0 0 Z " fill="#3C1703" transform="translate(88,30)"/>
<path d="M0 0 C0.33 1.32 0.66 2.64 1 4 C-1.64 4.33 -4.28 4.66 -7 5 C-6.67 4.01 -6.34 3.02 -6 2 C-4.7934375 1.7834375 -4.7934375 1.7834375 -3.5625 1.5625 C-1.07896294 1.25864751 -1.07896294 1.25864751 0 0 Z " fill="#6A3109" transform="translate(87,26)"/>
<path d="M0 0 C0.33 0 0.66 0 1 0 C1.125 5.75 1.125 5.75 0 8 C-1.32 7.67 -2.64 7.34 -4 7 C-4 6.34 -4 5.68 -4 5 C-2.68 5 -1.36 5 0 5 C0 3.35 0 1.7 0 0 Z " fill="#AA5D12" transform="translate(85,18)"/>
</svg>
